ply
format ascii 1.0
element vertex 247
property float x
property float y
property float z
property uchar red
property uchar green
property uchar blue
element edge 246
property int vertex1
property int vertex2
end_header
-0.46980682015419006 -0.049631934612989426 0.13522207736968994 255 0 191
-0.47035112977027893 -0.050266217440366745 0.13655421137809753 255 0 196
-0.47123971581459045 -0.050468459725379944 0.13674122095108032 255 0 202
-0.4694206714630127 -0.050666965544223785 0.13741284608840942 255 0 207
-0.4697812497615814 -0.05094818025827408 0.13830910623073578 255 0 212
-0.4699820578098297 -0.05107565224170685 0.13751091063022614 255 0 218
-0.46928080916404724 -0.049781039357185364 0.1364959180355072 255 0 223
-0.47025787830352783 -0.05004218965768814 0.13589930534362793 255 0 229
-0.46952542662620544 -0.050395671278238297 0.136875182390213 255 0 234
-0.46969541907310486 -0.049967795610427856 0.13691791892051697 255 0 240
-0.4687364101409912 -0.050512559711933136 0.13711392879486084 255 0 245
-0.47039365768432617 -0.05078212171792984 0.1374225616455078 255 0 251
-0.4697999954223633 -0.05067820847034454 0.13665401935577393 253 0 255
-0.470758855342865 -0.0499877855181694 0.13587424159049988 248 0 255
-0.4698334038257599 -0.05033716931939125 0.13689479231834412 242 0 255
-0.4691397547721863 -0.05023983493447304 0.13687163591384888 237 0 255
-0.4687643349170685 -0.04993847757577896 0.13709436357021332 231 0 255
-0.4697250425815582 -0.049719758331775665 0.13606148958206177 226 0 255
-0.46916162967681885 -0.04892287403345108 0.1360420286655426 220 0 255
-0.46845126152038574 -0.04998280107975006 0.1372462809085846 215 0 255
-0.46880221366882324 -0.04940590262413025 0.13627801835536957 210 0 255
-0.4692508280277252 -0.049825288355350494 0.1365659236907959 204 0 255
-0.4684232473373413 -0.049680329859256744 0.13623137772083282 199 0 255
-0.46903422474861145 -0.05040325969457626 0.13574564456939697 193 0 255
-0.46903494000434875 -0.05137203633785248 0.13708007335662842 188 0 255
-0.4652722477912903 -0.05125845596194267 0.13790249824523926 177 0 255
-0.4618006944656372 -0.04987044632434845 0.13733959197998047 172 0 255
-0.45809727907180786 -0.04785989597439766 0.134779155254364 166 0 255
-0.45268043875694275 -0.045857176184654236 0.13144147396087646 161 0 255
-0.4491879940032959 -0.046326056122779846 0.13250479102134705 155 0 255
-0.43407756090164185 -0.04315852001309395 0.13028652966022491 150 0 255
-0.4230462610721588 -0.041691746562719345 0.13224686682224274 144 0 255
-0.4046209454536438 -0.03915586322546005 0.12916666269302368 139 0 255
-0.38786447048187256 -0.03662482649087906 0.12693685293197632 133 0 255
-0.37320220470428467 -0.033400703221559525 0.12401009351015091 128 0 255
-0.344221830368042 -0.03125230595469475 0.12561744451522827 123 0 255
-0.31574133038520813 -0.028437580913305283 0.12649083137512207 117 0 255
-0.3121192157268524 -0.028683893382549286 0.1269332319498062 112 0 255
-0.2713514268398285 -0.025577887892723083 0.13282950222492218 106 0 255
-0.24121932685375214 -0.027050435543060303 0.1438807249069214 101 0 255
-0.21897931396961212 -0.030103545635938644 0.152962327003479 95 0 255
-0.19539597630500793 -0.032702114433050156 0.16585955023765564 90 0 255
-0.17470136284828186 -0.03687725588679314 0.17991790175437927 85 0 255
-0.15315701067447662 -0.04253193363547325 0.1955815553665161 79 0 255
-0.10839781165122986 -0.04074624553322792 0.24817383289337158 74 0 255
-0.08809826523065567 -0.045689381659030914 0.2600530982017517 68 0 255
-0.07283880561590195 -0.05140029266476631 0.273906409740448 63 0 255
-0.06952521950006485 -0.052381567656993866 0.27722057700157166 57 0 255
-0.041210249066352844 -0.07009177654981613 0.3165944516658783 52 0 255
-0.028504932299256325 -0.07278205454349518 0.322897732257843 47 0 255
-0.014899608679115772 -0.07561211287975311 0.32638785243034363 36 0 255
-0.0031613451428711414 -0.0761897936463356 0.3294174373149872 30 0 255
0.0035318133886903524 -0.07781364023685455 0.3318191170692444 25 0 255
0.01749233901500702 -0.07502371817827225 0.33243194222450256 19 0 255
0.043422963470220566 -0.0725792944431305 0.33509767055511475 14 0 255
0.06199207901954651 -0.06985141336917877 0.3345995545387268 8 0 255
0.07669278979301453 -0.0642784982919693 0.331055223941803 3 0 255
0.10739009082317352 -0.050136055797338486 0.3179362714290619 0 1 255
0.12039235234260559 -0.04088247939944267 0.3039071261882782 0 7 255
0.14028052985668182 -0.030755113810300827 0.28833073377609253 0 12 255
0.15689919888973236 -0.0184770617634058 0.2730289399623871 0 18 255
0.18037019670009613 -0.001598960137926042 0.2473294734954834 0 23 255
0.1972988247871399 0.010517791844904423 0.22984856367111206 0 29 255
0.21410132944583893 0.019472811371088028 0.21571862697601318 0 34 255
0.22811123728752136 0.03026200272142887 0.19938533008098602 0 39 255
0.2404177039861679 0.03789030387997627 0.18523450195789337 0 45 255
0.2577071785926819 0.05187758058309555 0.1664290577173233 0 50 255
0.26876020431518555 0.0600450374186039 0.15310300886631012 0 56 255
0.28395241498947144 0.07492493093013763 0.13007211685180664 0 61 255
0.2964814305305481 0.08693574368953705 0.11123493313789368 0 67 255
0.30220460891723633 0.09182228893041611 0.10407067835330963 0 72 255
0.32701122760772705 0.11248353868722916 0.07164093106985092 0 77 255
0.340800940990448 0.12564732134342194 0.051645442843437195 0 83 255
0.3572734594345093 0.13975292444229126 0.026508869603276253 0 88 255
0.3757275938987732 0.15637750923633575 0.004027266055345535 0 99 255
0.3908424377441406 0.16863830387592316 -0.017333965748548508 0 105 255
0.4101577401161194 0.1822609156370163 -0.03767092898488045 0 110 255
0.42537686228752136 0.19519588351249695 -0.05759627744555473 0 116 255
0.44142603874206543 0.20404605567455292 -0.0730985775589943 0 121 255
0.45744091272354126 0.2191411256790161 -0.09519229829311371 0 126 255
0.48271074891090393 0.2414570450782776 -0.12955307960510254 0 132 255
0.4962170720100403 0.255849689245224 -0.1527082622051239 0 137 255
0.5091304779052734 0.26345518231391907 -0.1651991754770279 0 143 255
0.5127197504043579 0.2707499563694 -0.17717380821704865 0 148 255
0.5430831909179688 0.2983030378818512 -0.22071856260299683 0 154 255
0.5629368424415588 0.3204622268676758 -0.2541691064834595 0 159 255
0.5779998302459717 0.333264023065567 -0.2770516872406006 0 164 255
0.5952262282371521 0.3524138629436493 -0.3038047254085541 0 170 255
0.629266083240509 0.4001196026802063 -0.33408427238464355 0 175 255
0.644785463809967 0.4117835462093353 -0.35389333963394165 0 181 255
0.6454619765281677 0.4221438765525818 -0.3684203326702118 0 186 255
0.6775270104408264 0.4425692856311798 -0.39924049377441406 0 192 255
0.6887708306312561 0.4401944577693939 -0.39882752299308777 0 197 255
0.6937791109085083 0.44996243715286255 -0.41606032848358154 0 202 255
0.7034737467765808 0.45959901809692383 -0.43399351835250854 0 208 255
0.7114545702934265 0.4670025110244751 -0.4457423985004425 0 213 255
0.722613513469696 0.4759070873260498 -0.4612307846546173 0 219 255
0.7338268160820007 0.4830673933029175 -0.4749014973640442 0 224 255
0.7436464428901672 0.49347370862960815 -0.491233229637146 0 230 255
0.7504768371582031 0.4997445046901703 -0.5012940168380737 0 241 255
0.7665660977363586 0.512320339679718 -0.5223731398582458 0 246 255
0.7823336720466614 0.5258594751358032 -0.5440035462379456 0 251 255
0.7913630604743958 0.5326133370399475 -0.5546783804893494 0 255 252
0.8173796534538269 0.5545340776443481 -0.5904958248138428 0 255 247
0.8400447964668274 0.5717734694480896 -0.6177682280540466 0 255 241
0.8513039350509644 0.5836243033409119 -0.6386291980743408 0 255 236
0.8670198321342468 0.5983248353004456 -0.6627751588821411 0 255 231
0.8865678906440735 0.6131453514099121 -0.6869567632675171 0 255 225
0.8975590467453003 0.623051643371582 -0.703812837600708 0 255 220
0.9062367677688599 0.634740948677063 -0.7238075733184814 0 255 215
0.912043571472168 0.6451686024665833 -0.741592526435852 0 255 209
0.915326714515686 0.6550636291503906 -0.7600305080413818 0 255 204
0.9055344462394714 0.6668903827667236 -0.7857949137687683 0 255 198
0.8944540023803711 0.672058641910553 -0.799397885799408 0 255 193
0.8777733445167542 0.6760527491569519 -0.8107190728187561 0 255 188
0.8542219400405884 0.689786434173584 -0.8477399945259094 0 255 182
0.8396028876304626 0.6969242095947266 -0.8643795251846313 0 255 177
0.8221850395202637 0.7032691240310669 -0.8812242746353149 0 255 172
0.8059982657432556 0.709802508354187 -0.8986639976501465 0 255 166
0.7909039258956909 0.716582179069519 -0.9154374599456787 0 255 161
0.7638424634933472 0.7251735329627991 -0.941227912902832 0 255 155
0.7420778870582581 0.7283759117126465 -0.9549496173858643 0 255 150
0.7223796844482422 0.7358960509300232 -0.9758314490318298 0 255 145
0.6858460307121277 0.748779296875 -1.0069719552993774 0 255 134
0.674615740776062 0.7504247426986694 -1.0128777027130127 0 255 129
0.6198829412460327 0.7574787139892578 -1.0403385162353516 0 255 123
0.5799116492271423 0.7634559273719788 -1.0595073699951172 0 255 118
0.5521897673606873 0.7683347463607788 -1.0759742259979248 0 255 112
0.5186008214950562 0.7741912603378296 -1.0968554019927979 0 255 107
0.489610493183136 0.7810788750648499 -1.1165564060211182 0 255 102
0.464034765958786 0.7838943004608154 -1.1296212673187256 0 255 96
0.40250661969184875 0.7935723066329956 -1.1659456491470337 0 255 91
0.4267244338989258 0.7592712640762329 -1.1712709665298462 0 255 86
0.3871934115886688 0.7688149809837341 -1.1959733963012695 0 255 80
0.35771697759628296 0.7702734470367432 -1.2085211277008057 0 255 75
0.29537296295166016 0.7819738388061523 -1.2433232069015503 0 255 69
0.26379522681236267 0.7946882843971252 -1.2728321552276611 0 255 64
0.23208098113536835 0.8007369041442871 -1.2921189069747925 0 255 59
0.2217351794242859 0.8028435111045837 -1.2980706691741943 0 255 53
0.12896238267421722 0.8171106576919556 -1.3454140424728394 0 255 48
0.08880579471588135 0.8251854777336121 -1.366445541381836 0 255 43
0.06151793524622917 0.8319051861763 -1.3860836029052734 0 255 37
0.013137545436620712 0.8415758013725281 -1.4142858982086182 0 255 32
-0.011453969404101372 0.846757173538208 -1.4274803400039673 0 255 26
-0.06390492618083954 0.8562856316566467 -1.457190990447998 0 255 21
-0.09896156191825867 0.8624740242958069 -1.4758843183517456 0 255 16
-0.13210827112197876 0.8693687319755554 -1.495753288269043 0 255 10
-0.16929976642131805 0.8744048476219177 -1.5119760036468506 0 255 5
-0.21399030089378357 0.8794625997543335 -1.5347833633422852 5 255 0
-0.24894770979881287 0.8847867846488953 -1.5505844354629517 10 255 0
-0.28252989053726196 0.8879340887069702 -1.5655415058135986 16 255 0
-0.3216095566749573 0.8917456865310669 -1.5820423364639282 21 255 0
-0.35482293367385864 0.8917476534843445 -1.5907474756240845 27 255 0
-0.38184505701065063 0.8936097025871277 -1.5991876125335693 32 255 0
-0.4076032340526581 0.89287269115448 -1.6061100959777832 37 255 0
-0.4676366448402405 0.891499936580658 -1.6069859266281128 43 255 0
-0.5111397504806519 0.8868100047111511 -1.6054998636245728 48 255 0
-0.5387587547302246 0.8817209601402283 -1.6012206077575684 54 255 0
-0.5808017253875732 0.8725466132164001 -1.58549964427948 59 255 0
-0.6033761501312256 0.8664892911911011 -1.5750963687896729 64 255 0
-0.654442310333252 0.847200870513916 -1.5443543195724487 70 255 0
-0.6819915771484375 0.8349467515945435 -1.526332974433899 75 255 0
-0.7172279357910156 0.8169537782669067 -1.4967623949050903 81 255 0
-0.7497620582580566 0.7986506223678589 -1.4682443141937256 86 255 0
-0.7642698287963867 0.7893804311752319 -1.4549269676208496 91 255 0
-0.7950911521911621 0.7703790664672852 -1.430738925933838 97 255 0
-0.8210451602935791 0.7518986463546753 -1.4029064178466797 102 255 0
-0.841897189617157 0.7373002171516418 -1.38055419921875 108 255 0
-0.865395188331604 0.7221854329109192 -1.3547087907791138 113 255 0
-0.8930930495262146 0.7038023471832275 -1.3241723775863647 118 255 0
-0.8999231457710266 0.6926289200782776 -1.3055585622787476 124 255 0
-0.9222967624664307 0.6777383685112 -1.2808336019515991 129 255 0
-0.9282191395759583 0.6683091521263123 -1.2630311250686646 135 255 0
-0.9336850643157959 0.6559379696846008 -1.239308476448059 145 255 0
-0.9410831928253174 0.6502761840820312 -1.2281053066253662 151 255 0
-0.9544211030006409 0.6300702095031738 -1.1966817378997803 156 255 0
-0.9213119745254517 0.6109446287155151 -1.1891478300094604 162 255 0
-0.944025456905365 0.5930493474006653 -1.1602678298950195 167 255 0
-0.9524651169776917 0.5890451073646545 -1.1502478122711182 172 255 0
-0.9467551112174988 0.5930513143539429 -1.1622776985168457 178 255 0
-0.9455080032348633 0.5971299409866333 -1.1701784133911133 183 255 0
-0.9450312852859497 0.5971317291259766 -1.1710500717163086 189 255 0
-0.9448143243789673 0.5971195101737976 -1.1700047254562378 194 255 0
-0.9457253217697144 0.5965354442596436 -1.1712307929992676 199 255 0
-0.9455632567405701 0.5966787934303284 -1.170567274093628 205 255 0
-0.9450335502624512 0.5963301062583923 -1.170477032661438 210 255 0
-0.947060763835907 0.5873688459396362 -1.1643000841140747 216 255 0
-0.958071768283844 0.5769402980804443 -1.150868535041809 221 255 0
-0.9719814658164978 0.5633195042610168 -1.1269856691360474 227 255 0
-0.9833641648292542 0.5535902976989746 -1.1119779348373413 232 255 0
-0.9958775639533997 0.5391818881034851 -1.091752529144287 237 255 0
-1.0031195878982544 0.5310283303260803 -1.077544927597046 243 255 0
-1.020599365234375 0.5124711990356445 -1.0484635829925537 248 255 0
-1.038089394569397 0.4995521008968353 -1.0266375541687012 254 255 0
-1.048892855644226 0.48918649554252625 -1.007002353668213 255 250 0
-1.0611897706985474 0.4749833643436432 -0.9859415888786316 255 245 0
-1.0834903717041016 0.4567931890487671 -0.9556611180305481 255 239 0
-1.0999705791473389 0.4380834102630615 -0.9254723787307739 255 228 0
-1.1211268901824951 0.420265257358551 -0.8946185111999512 255 223 0
-1.1363661289215088 0.4038541615009308 -0.8681953549385071 255 218 0
-1.151612639427185 0.3868887722492218 -0.8370876312255859 255 212 0
-1.166107177734375 0.3703586459159851 -0.8111594915390015 255 207 0
-1.1685309410095215 0.36570605635643005 -0.8000035285949707 255 201 0
-1.210436224937439 0.32588469982147217 -0.7343690991401672 255 196 0
-1.2257535457611084 0.3077048361301422 -0.7025083303451538 255 191 0
-1.240525245666504 0.29015034437179565 -0.6711015701293945 255 185 0
-1.2589539289474487 0.26649919152259827 -0.6315969228744507 255 180 0
-1.2705048322677612 0.24806688725948334 -0.5995376110076904 255 174 0
-1.2822113037109375 0.2314504086971283 -0.5679349899291992 255 169 0
-1.300830602645874 0.20055165886878967 -0.5157732367515564 255 164 0
-1.3149052858352661 0.17620302736759186 -0.4715009927749634 255 158 0
-1.331030249595642 0.14996929466724396 -0.42255765199661255 255 153 0
-1.3420568704605103 0.12069644778966904 -0.36936312913894653 255 147 0
-1.340377926826477 0.09815951436758041 -0.3237704336643219 255 142 0
-1.337671160697937 0.07890517264604568 -0.28747811913490295 255 137 0
-1.3319276571273804 0.05970665439963341 -0.24427437782287598 255 131 0
-1.327921748161316 0.04020000994205475 -0.20671765506267548 255 126 0
-1.318058729171753 0.026446448639035225 -0.17426852881908417 255 120 0
-1.3075873851776123 -0.001327678095549345 -0.12481311708688736 255 115 0
-1.2899243831634521 -0.01904323697090149 -0.0851774737238884 255 110 0
-1.3663458824157715 -0.04912194237112999 -0.00857795774936676 255 104 0
-1.352870225906372 -0.07426410913467407 0.04213595762848854 255 99 0
-1.3383108377456665 -0.0942344218492508 0.08012375980615616 255 88 0
-1.322644829750061 -0.1122385635972023 0.1169828325510025 255 82 0
-1.3213011026382446 -0.11958937346935272 0.12535004317760468 255 77 0
-1.2970612049102783 -0.1427752524614334 0.1669643372297287 255 72 0
-1.2723126411437988 -0.153283029794693 0.18952500820159912 255 66 0
-1.2517683506011963 -0.1624097228050232 0.208687424659729 255 61 0
-1.2302577495574951 -0.17195144295692444 0.22914306819438934 255 55 0
-1.210089921951294 -0.17970971763134003 0.24635660648345947 255 50 0
-1.19530189037323 -0.18501542508602142 0.2569948434829712 255 45 0
-1.1761184930801392 -0.18844002485275269 0.2642844617366791 255 39 0
-1.1667160987854004 -0.1882680356502533 0.2676103115081787 255 34 0
-1.1581065654754639 -0.1834980845451355 0.2633802592754364 255 28 0
-1.1566694974899292 -0.18399493396282196 0.26423174142837524 255 23 0
-1.1569594144821167 -0.18355470895767212 0.2634676992893219 255 18 0
-1.159361481666565 -0.18385347723960876 0.26359260082244873 255 12 0
-1.1592589616775513 -0.18357424437999725 0.26326388120651245 255 7 0
-1.1594395637512207 -0.18367670476436615 0.2634795904159546 255 1 0
-1.159692406654358 -0.18414206802845 0.26360079646110535 255 0 3
-1.158808708190918 -0.18352550268173218 0.2633536756038666 255 0 8
-1.1588679552078247 -0.18401741981506348 0.26398953795433044 255 0 14
-1.159319281578064 -0.18381556868553162 0.26312321424484253 255 0 19
-1.1597900390625 -0.18414337933063507 0.26384997367858887 255 0 24
-1.1590406894683838 -0.18432772159576416 0.2640340328216553 255 0 30
-1.1603468656539917 -0.18398767709732056 0.2636148929595947 255 0 35
-1.1589261293411255 -0.18411684036254883 0.2644626498222351 255 0 40
0 1
1 2
2 3
3 4
4 5
5 6
6 7
7 8
8 9
9 10
10 11
11 12
12 13
13 14
14 15
15 16
16 17
17 18
18 19
19 20
20 21
21 22
22 23
23 24
24 25
25 26
26 27
27 28
28 29
29 30
30 31
31 32
32 33
33 34
34 35
35 36
36 37
37 38
38 39
39 40
40 41
41 42
42 43
43 44
44 45
45 46
46 47
47 48
48 49
49 50
50 51
51 52
52 53
53 54
54 55
55 56
56 57
57 58
58 59
59 60
60 61
61 62
62 63
63 64
64 65
65 66
66 67
67 68
68 69
69 70
70 71
71 72
72 73
73 74
74 75
75 76
76 77
77 78
78 79
79 80
80 81
81 82
82 83
83 84
84 85
85 86
86 87
87 88
88 89
89 90
90 91
91 92
92 93
93 94
94 95
95 96
96 97
97 98
98 99
99 100
100 101
101 102
102 103
103 104
104 105
105 106
106 107
107 108
108 109
109 110
110 111
111 112
112 113
113 114
114 115
115 116
116 117
117 118
118 119
119 120
120 121
121 122
122 123
123 124
124 125
125 126
126 127
127 128
128 129
129 130
130 131
131 132
132 133
133 134
134 135
135 136
136 137
137 138
138 139
139 140
140 141
141 142
142 143
143 144
144 145
145 146
146 147
147 148
148 149
149 150
150 151
151 152
152 153
153 154
154 155
155 156
156 157
157 158
158 159
159 160
160 161
161 162
162 163
163 164
164 165
165 166
166 167
167 168
168 169
169 170
170 171
171 172
172 173
173 174
174 175
175 176
176 177
177 178
178 179
179 180
180 181
181 182
182 183
183 184
184 185
185 186
186 187
187 188
188 189
189 190
190 191
191 192
192 193
193 194
194 195
195 196
196 197
197 198
198 199
199 200
200 201
201 202
202 203
203 204
204 205
205 206
206 207
207 208
208 209
209 210
210 211
211 212
212 213
213 214
214 215
215 216
216 217
217 218
218 219
219 220
220 221
221 222
222 223
223 224
224 225
225 226
226 227
227 228
228 229
229 230
230 231
231 232
232 233
233 234
234 235
235 236
236 237
237 238
238 239
239 240
240 241
241 242
242 243
243 244
244 245
245 246
