ply
format ascii 1.0
element vertex 247
property float x
property float y
property float z
property uchar red
property uchar green
property uchar blue
element edge 246
property int vertex1
property int vertex2
end_header
-0.46980682015419006 -0.049631934612989426 0.13522207736968994 255 0 191
-0.47035112977027893 -0.050266217440366745 0.13655421137809753 255 0 196
-0.47123971581459045 -0.050468459725379944 0.13674122095108032 255 0 202
-0.4694206714630127 -0.050666965544223785 0.13741284608840942 255 0 207
-0.4697812497615814 -0.05094818025827408 0.13830910623073578 255 0 212
-0.4699820578098297 -0.05107565224170685 0.13751091063022614 255 0 218
-0.46928080916404724 -0.049781039357185364 0.1364959180355072 255 0 223
-0.47025787830352783 -0.05004218965768814 0.13589930534362793 255 0 229
-0.46952542662620544 -0.050395671278238297 0.136875182390213 255 0 234
-0.46969541907310486 -0.049967795610427856 0.13691791892051697 255 0 240
-0.4687364101409912 -0.050512559711933136 0.13711392879486084 255 0 245
-0.47039365768432617 -0.05078212171792984 0.1374225616455078 255 0 251
-0.4697999954223633 -0.05067820847034454 0.13665401935577393 253 0 255
-0.470758855342865 -0.0499877855181694 0.13587424159049988 248 0 255
-0.4698334038257599 -0.05033716931939125 0.13689479231834412 242 0 255
-0.4691397547721863 -0.05023983493447304 0.13687163591384888 237 0 255
-0.4687643349170685 -0.04993847757577896 0.13709436357021332 231 0 255
-0.4697250425815582 -0.049719758331775665 0.13606148958206177 226 0 255
-0.46916162967681885 -0.04892287403345108 0.1360420286655426 220 0 255
-0.46845126152038574 -0.04998280107975006 0.1372462809085846 215 0 255
-0.46880221366882324 -0.04940590262413025 0.13627801835536957 210 0 255
-0.4692508280277252 -0.049825288355350494 0.1365659236907959 204 0 255
-0.4684232473373413 -0.049680329859256744 0.13623137772083282 199 0 255
-0.46903422474861145 -0.05040325969457626 0.13574564456939697 193 0 255
-0.46903494000434875 -0.05137203633785248 0.13708007335662842 188 0 255
-0.4652722477912903 -0.05125845596194267 0.13790249824523926 177 0 255
-0.4618006944656372 -0.04987044632434845 0.13733959197998047 172 0 255
-0.45809727907180786 -0.04785989597439766 0.134779155254364 166 0 255
-0.45268043875694275 -0.045857176184654236 0.13144147396087646 161 0 255
-0.4491879940032959 -0.046326056122779846 0.13250479102134705 155 0 255
-0.43407756090164185 -0.04315852001309395 0.13028652966022491 150 0 255
-0.4230462610721588 -0.041691746562719345 0.13224686682224274 144 0 255
-0.4046209454536438 -0.03915586322546005 0.12916666269302368 139 0 255
-0.38786447048187256 -0.03662482649087906 0.12693685293197632 133 0 255
-0.37320220470428467 -0.033400703221559525 0.12401009351015091 128 0 255
-0.344221830368042 -0.03125230595469475 0.12561744451522827 123 0 255
-0.31574133038520813 -0.028437580913305283 0.12649083137512207 117 0 255
-0.3121192157268524 -0.028683893382549286 0.1269332319498062 112 0 255
-0.2713514268398285 -0.025577887892723083 0.13282950222492218 106 0 255
-0.24121932685375214 -0.027050435543060303 0.1438807249069214 101 0 255
-0.21897931396961212 -0.030103545635938644 0.152962327003479 95 0 255
-0.19539597630500793 -0.032702114433050156 0.16585955023765564 90 0 255
-0.17470136284828186 -0.03687725588679314 0.17991790175437927 85 0 255
-0.15315701067447662 -0.04253193363547325 0.1955815553665161 79 0 255
-0.13905203342437744 -0.04719892889261246 0.20904463529586792 74 0 255
-0.1170606017112732 -0.052183739840984344 0.2218078374862671 68 0 255
-0.10048508644104004 -0.058064110577106476 0.2367171049118042 63 0 255
-0.09688866138458252 -0.05906090885400772 0.2402835488319397 57 0 255
-0.06598544120788574 -0.07759184390306473 0.2827090620994568 52 0 255
-0.05223053693771362 -0.08028074353933334 0.28947579860687256 47 0 255
-0.0375116765499115 -0.08311692625284195 0.29320746660232544 36 0 255
-0.024840354919433594 -0.0835544541478157 0.29644036293029785 30 0 255
-0.01759392023086548 -0.08519694954156876 0.2990151643753052 25 0 255
-0.0025842487812042236 -0.08197977393865585 0.29962408542633057 19 0 255
0.02534031867980957 -0.07894984632730484 0.30241143703460693 14 0 255
0.04531565308570862 -0.07573499530553818 0.30180901288986206 8 0 255
0.0610695481300354 -0.06952152401208878 0.2979241609573364 3 0 255
0.09391188621520996 -0.053866393864154816 0.2836388349533081 0 1 255
0.1077491044998169 -0.043747641146183014 0.2684426009654999 0 7 255
0.1289917230606079 -0.032590098679065704 0.25155454874038696 0 12 255
0.14667865633964539 -0.019161753356456757 0.2349647879600525 0 18 255
0.17165318131446838 -0.0007096379995346069 0.20712870359420776 0 23 255
0.18967020511627197 0.012541703879833221 0.1881893128156662 0 29 255
0.2076082080602646 0.022394739091396332 0.17287404835224152 0 34 255
0.22250200808048248 0.03417567163705826 0.15518531203269958 0 39 255
0.23561297357082367 0.04253161698579788 0.1398656964302063 0 45 255
0.25398725271224976 0.05780003219842911 0.11949069797992706 0 50 255
0.2657414376735687 0.06672148406505585 0.10506214201450348 0 56 255
0.2818291187286377 0.08290597051382065 0.08013491332530975 0 61 255
0.2951009273529053 0.09597291052341461 0.059746935963630676 0 67 255
0.30117660760879517 0.1013002097606659 0.051988884806632996 0 72 255
0.32751476764678955 0.12382649630308151 0.016879647970199585 0 77 255
0.3421250283718109 0.13815096020698547 -0.004764910787343979 0 83 255
0.35959815979003906 0.15351231396198273 -0.03196339309215546 0 88 255
0.3791778087615967 0.17162799835205078 -0.0563143715262413 0 99 255
0.39522597193717957 0.1849938929080963 -0.07943214476108551 0 105 255
0.41578495502471924 0.19989387691020966 -0.10146307200193405 0 110 255
0.4319397509098053 0.21399317681789398 -0.12303551286458969 0 116 255
0.44906318187713623 0.2237171232700348 -0.1398276835680008 0 121 255
0.46603724360466003 0.2401491105556488 -0.16374778747558594 0 126 255
0.4928444027900696 0.26445916295051575 -0.20094604790210724 0 132 255
0.5071215629577637 0.28009289503097534 -0.22600048780441284 0 137 255
0.5208920240402222 0.28843915462493896 -0.23953232169151306 0 143 255
0.5246173739433289 0.29631373286247253 -0.2524784207344055 0 148 255
0.5568103194236755 0.32631251215934753 -0.29961150884628296 0 154 255
0.5777838826179504 0.35037633776664734 -0.3358116149902344 0 159 255
0.5937635898590088 0.3643192648887634 -0.3605712652206421 0 164 255
0.6119695901870728 0.38512372970581055 -0.3895324170589447 0 170 255
0.6251076459884644 0.4007819890975952 -0.41475504636764526 0 175 255
0.6418766379356384 0.4139733612537384 -0.4361700415611267 0 181 255
0.6424891948699951 0.42550522089004517 -0.4518340826034546 0 186 255
0.6771863102912903 0.4485933780670166 -0.48512446880340576 0 192 255
0.6894652247428894 0.446115106344223 -0.48472487926483154 0 197 255
0.6948015689849854 0.45708999037742615 -0.5033518671989441 0 202 255
0.7052456736564636 0.4679815173149109 -0.5227491855621338 0 208 255
0.7138527035713196 0.47632184624671936 -0.5354413986206055 0 213 255
0.7259032726287842 0.4863913059234619 -0.5521879196166992 0 219 255
0.7380332946777344 0.49453115463256836 -0.566981852054596 0 224 255
0.7486076951026917 0.5062368512153625 -0.5846216678619385 0 230 255
0.7559746503829956 0.5133036375045776 -0.595491349697113 0 241 255
0.7733536958694458 0.527515172958374 -0.6182762980461121 0 246 255
0.7903715372085571 0.5427820086479187 -0.6416460275650024 0 251 255
0.8001293540000916 0.550407886505127 -0.6531794667243958 0 255 252
0.828213095664978 0.5751438140869141 -0.6918850541114807 0 255 247
0.8527030348777771 0.5946055054664612 -0.7213507294654846 0 255 241
0.8648258447647095 0.6079734563827515 -0.7439044713973999 0 255 236
0.8817722797393799 0.6245460510253906 -0.7699967622756958 0 255 231
0.9028939008712769 0.6412895917892456 -0.7961300611495972 0 255 225
0.9147496223449707 0.6524710059165955 -0.8143506050109863 0 255 220
0.9240617752075195 0.6656222939491272 -0.8359602093696594 0 255 215
0.9302608370780945 0.6773332357406616 -0.8551790714263916 0 255 209
0.9337142109870911 0.6884482502937317 -0.8751155138015747 0 255 204
0.9228886365890503 0.7016515731811523 -0.9029907584190369 0 255 198
0.9107427597045898 0.7073889374732971 -0.917719304561615 0 255 193
0.8925085067749023 0.7117519974708557 -0.9299743175506592 0 255 188
0.8666542768478394 0.7270731329917908 -0.9700709581375122 0 255 182
0.8506278395652771 0.7349692583084106 -0.9880729913711548 0 255 177
0.8315591216087341 0.741975724697113 -1.0063085556030273 0 255 172
0.8138294219970703 0.749210000038147 -1.0251907110214233 0 255 166
0.7972885370254517 0.7567130923271179 -1.0433440208435059 0 255 161
0.7676756978034973 0.7662125825881958 -1.0712815523147583 0 255 155
0.7439060211181641 0.7696990966796875 -1.0861599445343018 0 255 150
0.7223350405693054 0.7780279517173767 -1.1087734699249268 0 255 145
0.6823481917381287 0.7921929359436035 -1.1424617767333984 0 255 134
0.6700848340988159 0.7939653992652893 -1.1488590240478516 0 255 129
0.6103285551071167 0.8015303611755371 -1.178612232208252 0 255 123
0.5666812658309937 0.8079404830932617 -1.1993623971939087 0 255 118
0.5363984107971191 0.813236653804779 -1.2171987295150757 0 255 112
0.4997059106826782 0.8196089863777161 -1.2398236989974976 0 255 107
0.46801599860191345 0.8271333575248718 -1.2611507177352905 0 255 102
0.4400975704193115 0.8301481604576111 -1.275315523147583 0 255 96
0.37289759516716003 0.8406456708908081 -1.3146781921386719 0 255 91
0.33675646781921387 0.8499770164489746 -1.3414212465286255 0 255 86
0.29709362983703613 0.8585292100906372 -1.3664906024932861 0 255 80
0.2676156759262085 0.8592426180839539 -1.3792914152145386 0 255 75
0.20511597394943237 0.869376540184021 -1.4146584272384644 0 255 69
0.1733798384666443 0.8812996745109558 -1.4444894790649414 0 255 64
0.1415959596633911 0.8865500688552856 -1.4640674591064453 0 255 59
0.13122153282165527 0.8883968591690063 -1.4701136350631714 0 255 53
0.03826189041137695 0.9003310203552246 -1.518283486366272 0 255 48
-0.002018868923187256 0.9073993563652039 -1.539676308631897 0 255 43
-0.02938145399093628 0.9134323596954346 -1.5595738887786865 0 255 37
-0.0778883695602417 0.9218873977661133 -1.588218092918396 0 255 32
-0.10255944728851318 0.9264525771141052 -1.6016347408294678 0 255 26
-0.1551302671432495 0.9346621036529541 -1.6318213939666748 0 255 21
-0.1902713179588318 0.9399697184562683 -1.6508299112319946 0 255 16
-0.22350728511810303 0.9460316300392151 -1.6710032224655151 0 255 10
-0.26077747344970703 0.9501338005065918 -1.6875499486923218 0 255 5
-0.3055127263069153 0.9540639519691467 -1.710753321647644 5 255 0
-0.3405546545982361 0.9585109949111938 -1.7268610000610352 10 255 0
-0.3741706311702728 0.9608118534088135 -1.742109775543213 16 255 0
-0.41330018639564514 0.9636396169662476 -1.7589480876922607 21 255 0
-0.44651538133621216 0.9628040790557861 -1.7679237127304077 27 255 0
-0.4735751450061798 0.9639872312545776 -1.7765893936157227 32 255 0
-0.4993150234222412 0.962598979473114 -1.7837210893630981 37 255 0
-0.5594297051429749 0.9597245454788208 -1.7850494384765625 43 255 0
-0.6029155254364014 0.9539408683776855 -1.7838819026947021 48 255 0
-0.6304961442947388 0.948156476020813 -1.779794454574585 54 255 0
-0.6725146174430847 0.9379298686981201 -1.7643423080444336 59 255 0
-0.6950624585151672 0.9313071966171265 -1.754077434539795 64 255 0
-0.7459836602210999 0.9107356071472168 -1.7236248254776 70 255 0
-0.7734194993972778 0.8977868556976318 -1.7057541608810425 75 255 0
-0.808502197265625 0.8789071440696716 -1.6763581037521362 81 255 0
-0.840861439704895 0.8597830533981323 -1.6479963064193726 86 255 0
-0.855268120765686 0.8501451015472412 -1.6347459554672241 91 255 0
-0.8858609795570374 0.830359697341919 -1.6107107400894165 97 255 0
-0.9116171002388 0.8112214803695679 -1.5829863548278809 102 255 0
-0.9323163628578186 0.796095073223114 -1.5607213973999023 108 255 0
-0.9556804299354553 0.7803886532783508 -1.5349743366241455 113 255 0
-0.9832068085670471 0.7613071799278259 -1.504552960395813 118 255 0
-0.989912748336792 0.7499589323997498 -1.4859336614608765 124 255 0
-1.012147307395935 0.7345041632652283 -1.4613014459609985 129 255 0
-1.0179810523986816 0.7249255776405334 -1.4434906244277954 135 255 0
-1.0233287811279297 0.7124162912368774 -1.41973876953125 145 255 0
-1.0306854248046875 0.706569492816925 -1.4085583686828613 151 255 0
-1.0437839031219482 0.68602055311203 -1.3771374225616455 156 255 0
-1.0650434494018555 0.6750319004058838 -1.3554656505584717 162 255 0
-1.0849677324295044 0.6570912599563599 -1.3279080390930176 167 255 0
-1.0925079584121704 0.6529122591018677 -1.3183279037475586 172 255 0
-1.0875728130340576 0.6569713950157166 -1.3297436237335205 178 255 0
-1.0867500305175781 0.6608812808990479 -1.3371856212615967 183 255 0
-1.086319923400879 0.6609072685241699 -1.338015079498291 189 255 0
-1.0860943794250488 0.6609032154083252 -1.3370362520217896 194 255 0
-1.0869479179382324 0.660315215587616 -1.3381731510162354 199 255 0
-1.0867888927459717 0.6604557633399963 -1.3375518321990967 205 255 0
-1.0862733125686646 0.6601524949073792 -1.3374788761138916 210 255 0
-1.0876375436782837 0.6516227722167969 -1.3316594362258911 216 255 0
-1.097226619720459 0.6412794589996338 -1.3188412189483643 221 255 0
-1.1091794967651367 0.6277761459350586 -1.2961456775665283 227 255 0
-1.119118332862854 0.6180688142776489 -1.2818350791931152 232 255 0
-1.1297969818115234 0.603899359703064 -1.2626104354858398 237 255 0
-1.1359350681304932 0.5958666801452637 -1.2491300106048584 243 255 0
-1.1509079933166504 0.5775464773178101 -1.2214903831481934 248 255 0
-1.1662983894348145 0.5645415186882019 -1.200655221939087 254 255 0
-1.175570011138916 0.5542516112327576 -1.1820060014724731 255 250 0
-1.1860378980636597 0.5402829647064209 -1.161999225616455 255 245 0
-1.2055323123931885 0.5220808982849121 -1.1331336498260498 255 239 0
-1.219536542892456 0.5036609172821045 -1.1044731140136719 255 228 0
-1.2379616498947144 0.48586010932922363 -1.075089931488037 255 223 0
-1.2509828805923462 0.4696669578552246 -1.049988031387329 255 218 0
-1.2638903856277466 0.45294106006622314 -1.020481824874878 255 212 0
-1.2762165069580078 0.4366718530654907 -0.9958609342575073 255 207 0
-1.2780522108078003 0.432159960269928 -0.9853354692459106 255 201 0
-1.3142462968826294 0.3926350772380829 -0.9228984713554382 255 196 0
-1.3271489143371582 0.3747628331184387 -0.8926867842674255 255 191 0
-1.339577078819275 0.357504665851593 -0.8629108667373657 255 185 0
-1.3549944162368774 0.3343280553817749 -0.8254660367965698 255 180 0
-1.3643430471420288 0.3163928985595703 -0.7951440811157227 255 174 0
-1.3739311695098877 0.3001578748226166 -0.7652422785758972 255 169 0
-1.3889356851577759 0.2701309323310852 -0.7159138917922974 255 164 0
-1.4001340866088867 0.24648918211460114 -0.6740747094154358 255 158 0
-1.413076639175415 0.22096940875053406 -0.6278073787689209 255 153 0
-1.421002745628357 0.1928200125694275 -0.5776544809341431 255 147 0
-1.4174588918685913 0.1716083586215973 -0.5348833799362183 255 142 0
-1.4132897853851318 0.1535518914461136 -0.5008691549301147 255 137 0
-1.4061305522918701 0.1356716752052307 -0.4604150652885437 255 131 0
-1.4007036685943604 0.11743529140949249 -0.42523854970932007 255 126 0
-1.3901442289352417 0.10488918423652649 -0.39496374130249023 255 120 0
-1.3780196905136108 0.07915487885475159 -0.34875422716140747 255 115 0
-1.3598039150238037 0.06323005259037018 -0.3118903934955597 255 110 0
-1.3458070755004883 0.042120546102523804 -0.26656442880630493 255 104 0
-1.3342037200927734 0.018786907196044922 -0.21877148747444153 255 99 0
-1.3213098049163818 0.0003579854965209961 -0.18283042311668396 255 88 0
-1.3073952198028564 -0.016200557351112366 -0.14790448546409607 255 82 0
-1.306221604347229 -0.023067712783813477 -0.14005497097969055 255 77 0
-1.2843146324157715 -0.04427039623260498 -0.10041867196559906 255 72 0
-1.2616418600082397 -0.05354289710521698 -0.07855156064033508 255 66 0
-1.2428243160247803 -0.0616193488240242 -0.05999404191970825 255 61 0
-1.2231347560882568 -0.07006362080574036 -0.04019719362258911 255 55 0
-1.2046412229537964 -0.07686366140842438 -0.023470818996429443 255 50 0
-1.1910268068313599 -0.08148523420095444 -0.013059943914413452 255 45 0
-1.1732444763183594 -0.08422567695379257 -0.005633994936943054 255 39 0
-1.1645678281784058 -0.08383748680353165 -0.0022209882736206055 255 34 0
-1.156506061553955 -0.07914525270462036 -0.00588756799697876 255 28 0
-1.1551777124404907 -0.07957626134157181 -0.005046293139457703 255 23 0
-1.1554352045059204 -0.07916945964097977 -0.00576898455619812 255 18 0
-1.1576768159866333 -0.07951005548238754 -0.005730286240577698 255 12 0
-1.1575775146484375 -0.07924527674913406 -0.00603368878364563 255 7 0
-1.1577506065368652 -0.07934635877609253 -0.005838066339492798 255 1 0
-1.1579790115356445 -0.07978834211826324 -0.005733951926231384 255 0 3
-1.157160758972168 -0.07918858528137207 -0.005935102701187134 255 0 8
-1.1572240591049194 -0.07965214550495148 -0.005343630909919739 255 0 14
-1.1576231718063354 -0.07947203516960144 -0.006167709827423096 255 0 19
-1.1580781936645508 -0.07979283481836319 -0.005504131317138672 255 0 24
-1.1573790311813354 -0.0799468606710434 -0.00530831515789032 255 0 30
-1.158595085144043 -0.079660564661026 -0.005741521716117859 255 0 35
-1.1572911739349365 -0.07974810898303986 -0.00490337610244751 255 0 40
0 1
1 2
2 3
3 4
4 5
5 6
6 7
7 8
8 9
9 10
10 11
11 12
12 13
13 14
14 15
15 16
16 17
17 18
18 19
19 20
20 21
21 22
22 23
23 24
24 25
25 26
26 27
27 28
28 29
29 30
30 31
31 32
32 33
33 34
34 35
35 36
36 37
37 38
38 39
39 40
40 41
41 42
42 43
43 44
44 45
45 46
46 47
47 48
48 49
49 50
50 51
51 52
52 53
53 54
54 55
55 56
56 57
57 58
58 59
59 60
60 61
61 62
62 63
63 64
64 65
65 66
66 67
67 68
68 69
69 70
70 71
71 72
72 73
73 74
74 75
75 76
76 77
77 78
78 79
79 80
80 81
81 82
82 83
83 84
84 85
85 86
86 87
87 88
88 89
89 90
90 91
91 92
92 93
93 94
94 95
95 96
96 97
97 98
98 99
99 100
100 101
101 102
102 103
103 104
104 105
105 106
106 107
107 108
108 109
109 110
110 111
111 112
112 113
113 114
114 115
115 116
116 117
117 118
118 119
119 120
120 121
121 122
122 123
123 124
124 125
125 126
126 127
127 128
128 129
129 130
130 131
131 132
132 133
133 134
134 135
135 136
136 137
137 138
138 139
139 140
140 141
141 142
142 143
143 144
144 145
145 146
146 147
147 148
148 149
149 150
150 151
151 152
152 153
153 154
154 155
155 156
156 157
157 158
158 159
159 160
160 161
161 162
162 163
163 164
164 165
165 166
166 167
167 168
168 169
169 170
170 171
171 172
172 173
173 174
174 175
175 176
176 177
177 178
178 179
179 180
180 181
181 182
182 183
183 184
184 185
185 186
186 187
187 188
188 189
189 190
190 191
191 192
192 193
193 194
194 195
195 196
196 197
197 198
198 199
199 200
200 201
201 202
202 203
203 204
204 205
205 206
206 207
207 208
208 209
209 210
210 211
211 212
212 213
213 214
214 215
215 216
216 217
217 218
218 219
219 220
220 221
221 222
222 223
223 224
224 225
225 226
226 227
227 228
228 229
229 230
230 231
231 232
232 233
233 234
234 235
235 236
236 237
237 238
238 239
239 240
240 241
241 242
242 243
243 244
244 245
245 246
